<?xml version="1.0" encoding="utf-8"?>
<!-- Generator: Adobe Illustrator 26.0.1, SVG Export Plug-In . SVG Version: 6.00 Build 0)  -->
<svg version="1.1" id="Слой_1" xmlns="http://www.w3.org/2000/svg" xmlns:xlink="http://www.w3.org/1999/xlink" x="0px" y="0px"
	 viewBox="0 0 722 72.4" style="enable-background:new 0 0 722 72.4;" xml:space="preserve">
<style type="text/css">
	.st0{fill:#FFFFFF;stroke:#000000;stroke-miterlimit:10;}
	.st1{fill:#F90303;}
	.st2{fill:#FFF8E8;}
</style>
<g>
	<g>
		<path class="st0" d="M105.3,60.1c-2.8-1.6-5-3.8-6.6-6.6c-1.5-2.8-2.3-6.2-2.3-9.9V29.1c0-3.8,0.8-7,2.3-9.9s3.7-5,6.6-6.6
			c2.8-1.6,6.1-2.3,9.8-2.3s7,0.8,9.8,2.3c2.8,1.6,5,3.8,6.6,6.6s2.3,6.2,2.3,9.9v14.5c0,3.8-0.8,7-2.3,9.9s-3.7,5.1-6.6,6.6
			c-2.8,1.6-6.1,2.3-9.8,2.3C111.4,62.4,108.2,61.6,105.3,60.1z M119.7,51.7c1.3-0.7,2.3-1.8,3-3.2c0.7-1.4,1.1-2.9,1.1-4.7v-15
			c0-1.8-0.4-3.3-1.1-4.7c-0.7-1.4-1.7-2.4-3-3.2s-2.8-1.1-4.6-1.1c-1.7,0-3.3,0.4-4.6,1.1c-1.3,0.7-2.3,1.8-3,3.2
			c-0.7,1.4-1.1,2.9-1.1,4.7v15c0,1.8,0.4,3.3,1.1,4.7c0.7,1.4,1.7,2.4,3,3.1s2.8,1.1,4.6,1.1S118.4,52.4,119.7,51.7z"/>
		<path class="st0" d="M144,10.8h11.8l19,39.2l-0.8,0.9V10.8h9.2v51.1h-11.9l-19-38.6l0.8-0.9v39.5H144L144,10.8L144,10.8z"/>
		<path class="st0" d="M194.4,10.8h9.6v51.1h-9.6V10.8z M198.7,52.6h29.9v9.3h-29.9V52.6z"/>
		<path class="st0" d="M245,61.9h-10V10.8h10V61.9z"/>
		<path class="st0" d="M255.5,10.8h11.8l19,39.2l-0.8,0.9V10.8h9.2v51.1h-11.9l-19-38.6l0.8-0.9v39.5h-9.2L255.5,10.8L255.5,10.8z"
			/>
		<path class="st0" d="M305.9,10.8h9.6v51.1h-9.6V10.8z M309.4,10.8h30.8V20h-30.8V10.8z M309.4,31.9h26.9v9.3h-26.9V31.9z
			 M309.4,52.6h30.8v9.3h-30.8V52.6z"/>
		<path class="st0" d="M375.8,60.2c-2.8-1.5-4.9-3.7-6.3-6.5c-1.5-2.8-2.2-6.3-2.2-10.3v-14c0-4,0.7-7.5,2.2-10.3
			c1.5-2.9,3.6-5,6.3-6.5s6.1-2.2,10-2.2c3.2,0,6.1,0.7,8.6,2.1s4.6,3.4,6.3,6s2.8,5.8,3.4,9.5h-10c-0.4-1.7-1-3.1-1.7-4.3
			c-0.8-1.2-1.7-2.1-2.9-2.7c-1.1-0.6-2.4-1-3.7-1c-1.8,0-3.3,0.4-4.6,1.1s-2.2,1.8-2.9,3.2c-0.7,1.4-1,3.1-1,5.1v14
			c0,2,0.3,3.7,1,5.1s1.6,2.5,2.9,3.2s2.8,1.1,4.6,1.1c1.4,0,2.7-0.3,3.8-0.9c1.1-0.6,2.1-1.5,2.9-2.7s1.3-2.7,1.7-4.4h10
			c-0.7,3.7-1.8,6.9-3.5,9.5s-3.7,4.7-6.3,6c-2.5,1.4-5.4,2.1-8.6,2.1C381.9,62.4,378.5,61.7,375.8,60.2z"/>
		<path class="st0" d="M422.1,61.9h-10V10.8h10V61.9z"/>
		<path class="st0" d="M432.7,10.8h11.8l19,39.2l-0.8,0.9V10.8h9.2v51.1H460L441,23.3l0.8-0.9v39.5h-9.2L432.7,10.8L432.7,10.8z"/>
		<path class="st0" d="M483.1,10.8h9.6v51.1h-9.6V10.8z M486.6,10.8h30.8V20h-30.8L486.6,10.8L486.6,10.8z M486.6,31.9h26.9v9.3
			h-26.9L486.6,31.9L486.6,31.9z M486.6,52.6h30.8v9.3h-30.8L486.6,52.6L486.6,52.6z"/>
		<path class="st0" d="M558.3,10.8H571v51.1h-8.8V22.2l0.3,2.2l-9.8,31.7h-8.5l-9.8-31l0.3-3v39.7h-8.8V10.8h12.7l9.7,34.4
			L558.3,10.8z"/>
		<path class="st0" d="M596.8,10.8h6.1l19.5,51.1h-10.4L599.9,27l-12.2,34.9h-10.4L596.8,10.8z M586.7,44.4h26.9v9.3h-26.9V44.4z"/>
		<path class="st1" d="M626.6,52.2h9.6v9.6h-9.6V52.2z"/>
		<path class="st0" d="M652.6,60.2c-2.8-1.5-4.9-3.7-6.3-6.5s-2.2-6.3-2.2-10.3v-14c0-4,0.7-7.5,2.2-10.3s3.6-5,6.3-6.5
			s6.1-2.2,10-2.2c3.2,0,6.1,0.7,8.6,2.1c2.5,1.4,4.6,3.4,6.3,6s2.8,5.8,3.4,9.5h-10c-0.4-1.7-1-3.1-1.7-4.3s-1.7-2.1-2.8-2.7
			s-2.4-1-3.7-1c-1.8,0-3.3,0.4-4.6,1.1s-2.2,1.8-2.9,3.2c-0.7,1.4-1,3.1-1,5.1v14c0,2,0.3,3.7,1,5.1s1.6,2.5,2.9,3.2
			s2.8,1.1,4.6,1.1c1.4,0,2.7-0.3,3.8-0.9c1.1-0.6,2.1-1.5,2.8-2.7s1.3-2.7,1.7-4.4h10c-0.7,3.7-1.8,6.9-3.5,9.5s-3.7,4.7-6.3,6
			s-5.4,2.1-8.6,2.1C658.7,62.4,655.4,61.7,652.6,60.2z"/>
		<path class="st0" d="M707,42.2v19.7h-9.6V42.2l-15-31.4h10.1l9.8,22l9.8-22H722L707,42.2z"/>
	</g>
</g>
<g id="Home">
</g>
<g id="Print">
</g>
<g id="Mail">
</g>
<g id="Camera">
</g>
<g id="Video">
</g>
<g id="Film">
</g>
<g id="Message">
</g>
<g id="Telephone">
</g>
<g id="User">
</g>
<g id="File">
</g>
<g id="Folder">
</g>
<g id="Map">
</g>
<g id="Download">
</g>
<g id="Upload">
</g>
<g id="Video_Recorder">
</g>
<g id="Schedule">
</g>
<g id="Cart">
</g>
<g id="Setting">
</g>
<g id="Search">
</g>
<g id="Pencils">
</g>
<g id="Group">
</g>
<g id="Record">
</g>
<g id="Headphone">
</g>
<g id="Music_Player">
</g>
<g id="Sound_On">
</g>
<g id="Sound_Off">
</g>
<g id="Lock">
</g>
<g id="Lock_open">
</g>
<g id="Love">
</g>
<g id="Favorite">
</g>
<g id="Film_1_">
	<path class="st1" d="M40.9,0.1c-20,0-36.2,16.1-36.2,36.2c0,13.3,7.2,25.1,18.1,31.3H7.1c-1.2,0-2.4,1.2-2.4,2.4s1.2,2.4,2.4,2.4
		h33.7c20,0,36.2-16.1,36.2-36.2S60.9,0.1,40.9,0.1z"/>
	<g>
		<path class="st2" d="M7.1,67.6c-1.2,0-2.4,1.2-2.4,2.4s1.2,2.4,2.4,2.4h33.7c-6.5,0-12.8-1.7-18.1-4.8H7.1z"/>
		<path class="st2" d="M40.9,43.5c4.1,0,7.2-3.4,7.2-7.2c0-4.1-3.1-7.2-7.2-7.2c-3.9,0-7.2,3.1-7.2,7.2C33.6,40.1,37,43.5,40.9,43.5
			z"/>
		<path class="st2" d="M40.9,47.1c-2.4,0-5.1,1-6.7,2.7c-1.9,1.9-2.9,4.3-2.9,6.7c0,2.7,1,5.1,2.9,6.7c1.9,1.9,4.3,2.9,6.7,2.9
			c2.4,0,5.1-1,6.7-2.9c1.9-1.9,2.9-4.3,2.9-6.7c0-2.7-1-5.1-2.9-6.7C45.9,48,43.3,47.1,40.9,47.1z"/>
		<path class="st2" d="M68.1,29.5c-3.6-3.6-9.9-3.6-13.5,0c-1.9,1.9-2.9,4.3-2.9,6.7c0,2.4,1,5.1,2.9,6.7c1.9,1.9,4.3,2.9,6.7,2.9
			c2.7,0,5.1-1,6.7-2.9C70,41,71,38.6,71,36.2C71,33.8,70,31.2,68.1,29.5z"/>
		<path class="st2" d="M20.4,45.9c2.7,0,5.1-1,6.7-2.9C29,41,30,38.6,30,36.2s-1-5.1-2.9-6.7c-3.6-3.6-9.9-3.6-13.7,0
			c-1.9,1.9-2.9,4.3-2.9,6.7s1,5.1,2.9,6.7C15.3,44.9,18,45.9,20.4,45.9z"/>
		<path class="st2" d="M40.9,6.1c-2.4,0-5.1,1-6.7,2.7c-1.9,1.9-2.9,4.6-2.9,7c0,2.7,1,5.1,2.9,6.7c1.9,1.9,4.3,2.9,6.7,2.9
			c2.4,0,5.1-1,6.7-2.9c1.9-1.7,2.9-4.1,2.9-6.7s-1-5.1-2.9-6.7C45.9,7.1,43.3,6.1,40.9,6.1z"/>
	</g>
</g>
<g id="Music">
</g>
<g id="Puzzle">
</g>
<g id="Turn_Off">
</g>
<g id="Book">
</g>
<g id="Save">
</g>
<g id="Reload">
</g>
<g id="Trash">
</g>
<g id="Tag">
</g>
<g id="Link">
</g>
<g id="Like">
</g>
<g id="Bad">
</g>
<g id="Gallery">
</g>
<g id="Add">
</g>
<g id="Close">
</g>
<g id="Forward">
</g>
<g id="Back">
</g>
<g id="Buy">
</g>
<g id="Mac">
</g>
<g id="Laptop">
</g>
</svg>
